<?xml version="1.0" standalone="no"?>
<!DOCTYPE svg PUBLIC "-//W3C//DTD SVG 20010904//EN"
 "http://www.w3.org/TR/2001/REC-SVG-20010904/DTD/svg10.dtd">
<svg version="1.0" xmlns="http://www.w3.org/2000/svg"
 width="648.000000pt" height="640.000000pt" viewBox="0 0 648.000000 640.000000"
 preserveAspectRatio="xMidYMid meet">

<g transform="translate(0.000000,640.000000) scale(0.100000,-0.100000)"
fill="#000000" stroke="none">
<path d="M810 6141 c-100 -26 -140 -44 -232 -103 -117 -75 -236 -213 -287
-330 -10 -25 -29 -88 -41 -142 -22 -92 -22 -111 -17 -389 3 -161 10 -375 16
-477 5 -102 12 -637 16 -1190 3 -553 10 -1021 15 -1040 5 -19 16 -82 25 -139
10 -72 23 -117 40 -146 36 -63 116 -130 169 -144 31 -8 242 -11 680 -11 l636
0 -5 1113 c-3 756 -1 1134 6 1182 13 84 30 114 106 187 108 102 -19 92 1203
100 591 4 1089 11 1105 16 29 8 30 11 33 73 5 99 -18 775 -28 853 -13 94 -54
225 -101 322 -46 97 -126 176 -228 227 l-66 32 -1080 6 c-594 4 -1262 9 -1485
13 -380 6 -410 5 -480 -13z"/>
<path d="M4394 6044 c-4 -16 -2 -193 5 -394 6 -201 16 -966 21 -1700 5 -734
11 -1466 12 -1627 l3 -291 -30 -43 c-17 -24 -51 -56 -75 -71 l-45 -27 -1865
-5 c-1769 -6 -2010 -9 -2010 -26 0 -22 167 -153 405 -316 94 -65 188 -132 210
-149 22 -17 101 -74 175 -125 74 -52 160 -112 190 -135 30 -23 116 -84 190
-135 74 -52 195 -139 269 -194 196 -144 260 -189 415 -293 147 -98 184 -112
348 -131 36 -5 691 -5 1455 0 1516 9 1445 6 1571 66 126 61 254 264 292 462
12 59 15 1042 5 1500 -10 473 -19 1284 -17 1455 5 299 -16 914 -33 1001 -20
96 -91 247 -137 290 -18 18 -125 94 -238 170 -113 75 -266 180 -340 233 -74
52 -209 145 -300 206 -91 62 -203 139 -249 172 -86 62 -174 117 -203 128 -13
5 -19 0 -24 -21z"/>
<path d="M3970 4517 c-3 -3 -408 -7 -900 -10 -877 -5 -896 -5 -962 -26 -76
-25 -156 -89 -191 -155 -21 -41 -21 -42 -19 -661 3 -789 12 -1603 18 -1633 l4
-22 713 2 712 3 5 520 c5 489 6 522 24 548 34 50 41 51 356 53 265 2 492 14
544 30 19 6 19 18 13 403 -4 218 -7 516 -7 663 l0 266 -27 6 c-41 7 -277 18
-283 13z"/>
</g>
</svg>
